<svg width="24" height="27" viewBox="0 0 24 27" fill="none" xmlns="http://www.w3.org/2000/svg">
<path fill-rule="evenodd" clip-rule="evenodd" d="M18.3005 15C18.3005 18.3137 15.6142 21 12.3005 21C8.98683 21 6.30054 18.3137 6.30054 15C6.30054 11.6863 8.98683 9 12.3005 9C13.8918 9 15.418 9.63214 16.5432 10.7574C17.6684 11.8826 18.3005 13.4087 18.3005 15Z" stroke="#1F5DFF" stroke-width="2.2933" stroke-linecap="round" stroke-linejoin="round"/>
<path d="M7.80067 5.64663C8.43395 5.64663 8.94732 5.13325 8.94732 4.49998C8.94732 3.8667 8.43395 3.35333 7.80067 3.35333V4.49998V5.64663ZM16.8007 3.35333C16.1674 3.35333 15.654 3.8667 15.654 4.49998C15.654 5.13325 16.1674 5.64663 16.8007 5.64663V4.49998V3.35333ZM7.80086 3.35333C7.16758 3.35333 6.65421 3.8667 6.65421 4.49998C6.65421 5.13326 7.16758 5.64663 7.80086 5.64663V4.49998V3.35333ZM16.8009 5.64663C17.4341 5.64663 17.9475 5.13326 17.9475 4.49998C17.9475 3.8667 17.4341 3.35333 16.8009 3.35333V4.49998V5.64663ZM8.94738 4.49998C8.94738 3.8667 8.43401 3.35333 7.80073 3.35333C7.16745 3.35333 6.65408 3.8667 6.65408 4.49998H7.80073H8.94738ZM6.65408 5.99998C6.65408 6.63325 7.16745 7.14663 7.80073 7.14663C8.43401 7.14663 8.94738 6.63325 8.94738 5.99998H7.80073H6.65408ZM6.65408 4.49996C6.65408 5.13324 7.16745 5.64661 7.80073 5.64661C8.43401 5.64661 8.94738 5.13324 8.94738 4.49996H7.80073H6.65408ZM8.94738 1.49996C8.94738 0.866685 8.43401 0.353312 7.80073 0.353312C7.16745 0.353312 6.65408 0.866685 6.65408 1.49996H7.80073H8.94738ZM17.9477 4.49998C17.9477 3.8667 17.4343 3.35333 16.801 3.35333C16.1677 3.35333 15.6544 3.8667 15.6544 4.49998H16.801H17.9477ZM15.6544 5.99998C15.6544 6.63325 16.1677 7.14663 16.801 7.14663C17.4343 7.14663 17.9477 6.63325 17.9477 5.99998H16.801H15.6544ZM15.6544 4.49996C15.6544 5.13324 16.1677 5.64661 16.801 5.64661C17.4343 5.64661 17.9477 5.13324 17.9477 4.49996H16.801H15.6544ZM17.9477 1.49996C17.9477 0.866685 17.4343 0.353312 16.801 0.353312C16.1677 0.353312 15.6544 0.866685 15.6544 1.49996H16.801H17.9477ZM12.5912 13.2855C12.5912 12.6522 12.0778 12.1388 11.4446 12.1388C10.8113 12.1388 10.2979 12.6522 10.2979 13.2855H11.4446H12.5912ZM11.4446 15.8565H10.2979C10.2979 16.4897 10.8113 17.0031 11.4446 17.0031V15.8565ZM14.0156 17.0031C14.6488 17.0031 15.1622 16.4897 15.1622 15.8565C15.1622 15.2232 14.6488 14.7098 14.0156 14.7098V15.8565V17.0031ZM7.80067 4.49998V3.35333C3.85369 3.35333 0.654022 6.55299 0.654022 10.5H1.80067H2.94732C2.94732 7.81955 5.12024 5.64663 7.80067 5.64663V4.49998ZM1.80067 10.5H0.654022V19.5H1.80067H2.94732V10.5H1.80067ZM1.80067 19.5H0.654022C0.654022 23.447 3.85369 26.6466 7.80067 26.6466V25.5V24.3533C5.12024 24.3533 2.94732 22.1804 2.94732 19.5H1.80067ZM7.80067 25.5V26.6466H16.8007V25.5V24.3533H7.80067V25.5ZM16.8007 25.5V26.6466C20.7477 26.6466 23.9473 23.447 23.9473 19.5H22.8007H21.654C21.654 22.1804 19.4811 24.3533 16.8007 24.3533V25.5ZM22.8007 19.5H23.9473V10.5H22.8007H21.654V19.5H22.8007ZM22.8007 10.5H23.9473C23.9473 6.55299 20.7477 3.35333 16.8007 3.35333V4.49998V5.64663C19.4811 5.64663 21.654 7.81955 21.654 10.5H22.8007ZM7.80086 4.49998V5.64663H16.8009V4.49998V3.35333H7.80086V4.49998ZM7.80073 4.49998H6.65408V5.99998H7.80073H8.94738V4.49998H7.80073ZM7.80073 4.49996H8.94738V1.49996H7.80073H6.65408V4.49996H7.80073ZM16.801 4.49998H15.6544V5.99998H16.801H17.9477V4.49998H16.801ZM16.801 4.49996H17.9477V1.49996H16.801H15.6544V4.49996H16.801ZM11.4446 13.2855H10.2979V15.8565H11.4446H12.5912V13.2855H11.4446ZM11.4446 15.8565V17.0031H14.0156V15.8565V14.7098H11.4446V15.8565Z" fill="#1F5DFF"/>
</svg>
