<svg width="24" height="25" viewBox="0 0 24 25" fill="none" xmlns="http://www.w3.org/2000/svg">
<path fill-rule="evenodd" clip-rule="evenodd" d="M11.2508 23C10.7009 23 10.2319 22.602 10.1423 22.0595C10.0599 21.6206 9.74386 21.262 9.3188 21.125C8.97244 21.0061 8.63379 20.8658 8.30479 20.705C7.91332 20.5048 7.44369 20.5347 7.0808 20.783C6.64164 21.0988 6.03836 21.0499 5.6558 20.6675L4.1678 19.1795C3.76734 18.779 3.71531 18.1476 4.0448 17.687C4.29891 17.3157 4.33551 16.8371 4.1408 16.4315C4.0125 16.1497 3.89934 15.8613 3.8018 15.5675C3.66209 15.1045 3.27647 14.7576 2.8013 14.6675C2.22827 14.5759 1.80525 14.0838 1.8008 13.5035V11.642C1.79774 10.9731 2.28085 10.401 2.9408 10.292C3.44144 10.1968 3.85949 9.85386 4.0508 9.3815C4.1078 9.2485 4.1678 9.1165 4.2308 8.9855C4.48523 8.49566 4.45008 7.90567 4.1393 7.4495C3.75063 6.90932 3.81031 6.16714 4.2803 5.696L5.3738 4.6025C5.91312 4.06299 6.76371 3.99316 7.3838 4.4375L7.4183 4.4615C7.88133 4.77315 8.47052 4.82958 8.9843 4.6115C9.53393 4.41367 9.93901 3.94136 10.0508 3.368L10.0658 3.317C10.1893 2.55796 10.8448 2.00031 11.6138 2H12.9338C13.7236 1.99964 14.3976 2.57086 14.5268 3.35L14.5508 3.455C14.6568 4.00426 15.0409 4.45882 15.5648 4.655C16.0697 4.8717 16.6503 4.81511 17.1038 4.505L17.1788 4.451C17.815 3.99251 18.6898 4.06303 19.2443 4.6175L20.2508 5.6255C20.7552 6.13274 20.8186 6.93039 20.4008 7.511C20.0735 7.99628 20.0317 8.61987 20.2913 9.1445L20.3558 9.2945C20.5661 9.80669 21.0209 10.178 21.5648 10.2815C22.2756 10.3974 22.7984 11.0103 22.8008 11.7305V13.4C22.8006 14.0351 22.3413 14.5769 21.7148 14.681C21.1995 14.7798 20.7798 15.1529 20.6213 15.653C20.5513 15.853 20.4733 16.053 20.3873 16.253C20.1872 16.6924 20.2315 17.2045 20.5043 17.603C20.8642 18.1037 20.8084 18.7915 20.3723 19.2275L18.9758 20.6255C18.5764 21.0248 17.9467 21.0762 17.4878 20.747C17.1048 20.4853 16.6086 20.4565 16.1978 20.672C15.9051 20.817 15.6047 20.9457 15.2978 21.0575C14.8688 21.2055 14.5525 21.5728 14.4698 22.019C14.3823 22.5804 13.901 22.9957 13.3328 23H11.2508Z" stroke="#B4B5B6" stroke-width="2.2933" stroke-linecap="round" stroke-linejoin="round"/>
<path fill-rule="evenodd" clip-rule="evenodd" d="M15.8008 12.5C15.8008 14.4327 14.234 15.9995 12.3013 15.9995C10.3685 15.9995 8.80176 14.4327 8.80176 12.5C8.80176 10.5673 10.3685 9.00049 12.3013 9.00049C14.234 9.00049 15.8008 10.5673 15.8008 12.5Z" stroke="#B4B5B6" stroke-width="2.2933" stroke-linecap="round" stroke-linejoin="round"/>
</svg>
